<svg id="Pictograms" xmlns="http://www.w3.org/2000/svg" viewBox="0 0 100.18 141.18"><defs><style>.cls-1{fill:#fff;}.cls-2{fill:none;}.cls-3{fill:#e35500;}.cls-4{opacity:0.4;}.cls-5{fill:#f0ab00;}.cls-6{opacity:0.7;}</style></defs><title>Pin</title><path class="cls-1" d="M50,141.13,8.51,76.05A48.18,48.18,0,0,1,4.9,69.31,49.16,49.16,0,1,1,99.17,49.75a48.94,48.94,0,0,1-4.06,19.54,48,48,0,0,1-3.33,6.28c-.43.69-38.48,60.38-40.1,62.92ZM50,4.59A45,45,0,0,0,11.88,73.91L50,133.69c7.56-11.86,38-59.53,38.38-60.23a44.42,44.42,0,0,0,3.06-5.76A45.14,45.14,0,0,0,50,4.59Z"/><path class="cls-2" d="M26.09,64.07a27.56,27.56,0,0,0,47.74,0Z"/><path class="cls-3" d="M50,22.71A27.57,27.57,0,1,0,77.53,50.28,27.57,27.57,0,0,0,50,22.71Z"/><g class="cls-4"><path class="cls-5" d="M22.39,50.28a27.5,27.5,0,0,0,3.69,13.78H73.84a27.5,27.5,0,0,0,3.69-13.78H22.39Z"/></g><g class="cls-6"><path class="cls-5" d="M26.1,36.48a27.39,27.39,0,0,0-3.71,13.78H77.53a27.39,27.39,0,0,0-3.71-13.78Z"/></g><path class="cls-5" d="M50,22.71A27.56,27.56,0,0,0,26.09,36.48H73.83A27.56,27.56,0,0,0,50,22.71Z"/></svg>